<svg width="18" height="18" viewBox="0 0 18 18" fill="none" xmlns="http://www.w3.org/2000/svg">
<g clip-path="url(#clip0_5211_73)">
<path fill-rule="evenodd" clip-rule="evenodd" d="M7.5 6.75C7.08579 6.75 6.75 7.08579 6.75 7.5V15C6.75 15.4142 7.08579 15.75 7.5 15.75H15C15.4142 15.75 15.75 15.4142 15.75 15V7.5C15.75 7.08579 15.4142 6.75 15 6.75H7.5ZM5.25 7.5C5.25 6.25736 6.25736 5.25 7.5 5.25H15C16.2426 5.25 17.25 6.25736 17.25 7.5V15C17.25 16.2426 16.2426 17.25 15 17.25H7.5C6.25736 17.25 5.25 16.2426 5.25 15V7.5Z" fill="#F8FAFC"/>
<path fill-rule="evenodd" clip-rule="evenodd" d="M3 2.25C2.58921 2.25 2.25 2.58921 2.25 3V10.5C2.25 10.9108 2.58921 11.25 3 11.25C3.41421 11.25 3.75 11.5858 3.75 12C3.75 12.4142 3.41421 12.75 3 12.75C1.76079 12.75 0.75 11.7392 0.75 10.5V3C0.75 1.76079 1.76079 0.75 3 0.75H10.5C11.7392 0.75 12.75 1.76079 12.75 3C12.75 3.41421 12.4142 3.75 12 3.75C11.5858 3.75 11.25 3.41421 11.25 3C11.25 2.58921 10.9108 2.25 10.5 2.25H3Z" fill="#F8FAFC"/>
</g>
<defs>
<clipPath id="clip0_5211_73">
<rect width="18" height="18" fill="white"/>
</clipPath>
</defs>
</svg>
